<svg width="32" height="32" viewBox="0 0 32 32" fill="none" xmlns="http://www.w3.org/2000/svg">
<rect width="32" height="32" rx="8" fill="#1F98A6"/>
<path d="M15.7252 10.6587C17.3518 9.19834 19.8654 9.24681 21.4324 10.8166C22.9988 12.3871 23.0528 14.8882 21.5959 16.5197L15.7238 22.4L9.85321 16.5197C8.39629 14.8882 8.451 12.3829 10.0166 10.8166C11.585 9.24889 14.0938 9.19626 15.7252 10.6587V10.6587ZM20.4519 11.795C19.4132 10.755 17.7375 10.7127 16.6503 11.6891L15.7259 12.5187L14.8008 11.6898C13.7102 10.712 12.0379 10.755 10.9965 11.7964C9.9647 12.8282 9.91277 14.4797 10.8635 15.571L15.7245 20.4396L20.5856 15.5717C21.537 14.4797 21.4851 12.8303 20.4519 11.795V11.795Z" fill="white"/>
</svg>
