<svg width="311" height="298" viewBox="0 0 311 298" fill="none" xmlns="http://www.w3.org/2000/svg">
<g clip-path="url(#clip0_5_742)">
<path d="M53.1284 70.8152H107.622L107.622 7.62939e-06H53.1284L53.1284 70.8152Z" fill="#F4F4F4"/>
<path d="M53.1284 0H51.3605V70.8152H53.1284V0Z" fill="#F4F4F4"/>
<path opacity="0.05" d="M53.1284 0H51.3605V70.8152H53.1284V0Z" fill="#292A2E"/>
<path opacity="0.05" d="M63.055 57.9152L97.6952 57.9152V12.8996L63.055 12.8996L63.055 57.9152Z" fill="#292A2E"/>
<path opacity="0.03" d="M63.055 57.9152H64.8603V12.8996H63.055L63.055 57.9152Z" fill="#292A2E"/>
<path d="M8.56133 133.133H53.1281L53.1281 88.2301H8.56133L8.56133 133.133Z" fill="#F4F4F4"/>
<path opacity="0.05" d="M16.6799 124.954H45.0099V96.4099H16.6799L16.6799 124.954Z" fill="#292A2E"/>
<path d="M8.56162 88.2298H6.79375V133.133H8.56162V88.2298Z" fill="#F4F4F4"/>
<path opacity="0.05" d="M8.56162 88.2298H6.79375V133.133H8.56162V88.2298Z" fill="#292A2E"/>
<path opacity="0.03" d="M16.6802 124.954H18.4854L18.4854 96.4099H16.6802L16.6802 124.954Z" fill="#292A2E"/>
<path d="M294.566 2.52359H166.273V130.61H294.566V2.52359Z" fill="#F4F4F4"/>
<path d="M296.037 2.52359H294.566V130.61H296.037V2.52359Z" fill="#F4F4F4"/>
<path opacity="0.05" d="M296.037 2.52359H294.566V130.61H296.037V2.52359Z" fill="#292A2E"/>
<path opacity="0.05" d="M263.487 90.7853V57.274H235.991V76.7433H193.401V111.217H175.3V130.61H193.401H196.888H288.395V90.7853H263.487Z" fill="#292A2E"/>
<path opacity="0.34" d="M259.543 60.9125H239.521V64.551H259.543V60.9125Z" fill="#FFFFFA"/>
<path opacity="0.34" d="M259.543 68.4525H239.521V72.091H259.543V68.4525Z" fill="#FFFFFA"/>
<path opacity="0.34" d="M259.543 75.9923H239.521V79.6308H259.543V75.9923Z" fill="#FFFFFA"/>
<path opacity="0.34" d="M284.844 94.3173H281.154V97.9558H284.844V94.3173Z" fill="#FFFFFA"/>
<path opacity="0.34" d="M284.844 101.857H281.154V105.496H284.844V101.857Z" fill="#FFFFFA"/>
<path opacity="0.34" d="M284.844 109.397H281.154V113.036H284.844V109.397Z" fill="#FFFFFA"/>
<path opacity="0.34" d="M278.017 94.3173H274.327V97.9558H278.017V94.3173Z" fill="#FFFFFA"/>
<path opacity="0.34" d="M278.017 101.857H274.327V105.496H278.017V101.857Z" fill="#FFFFFA"/>
<path opacity="0.34" d="M278.017 109.397H274.327V113.036H278.017V109.397Z" fill="#FFFFFA"/>
<path opacity="0.34" d="M271.375 94.3173H267.684V97.9558H271.375V94.3173Z" fill="#FFFFFA"/>
<path opacity="0.34" d="M271.375 101.857H267.684V105.496H271.375V101.857Z" fill="#FFFFFA"/>
<path opacity="0.34" d="M271.375 109.397H267.684V113.036H271.375V109.397Z" fill="#FFFFFA"/>
<path d="M294.566 65.8483H268.751V2.52359H266.617V65.8483H196.888V2.52359H194.753V65.8483H166.273V67.9795H194.753V130.61H196.888V67.9795H266.617V130.61H268.751V67.9795H294.566V65.8483Z" fill="white"/>
<path d="M299.677 130.455H161.162V134.715H299.677V130.455Z" fill="#F4F4F4"/>
<path opacity="0.1" d="M299.677 130.455H161.162V134.715H299.677V130.455Z" fill="#292A2E"/>
<path opacity="0.1" d="M301.677 130.455H299.677V134.715H301.677V130.455Z" fill="#292A2E"/>
<path opacity="0.1" d="M301.677 130.455H299.677V134.715H301.677V130.455Z" fill="#292A2E"/>
<path d="M283.428 255.915C283.386 255.915 283.345 255.907 283.306 255.891C283.268 255.875 283.233 255.851 283.204 255.822C282.757 255.377 282.03 247.203 280.071 222.867C279.269 212.909 278.512 203.503 277.96 197.788C277.92 197.379 277.762 197.332 277.709 197.316C276.953 197.088 274.652 198.899 273.368 200.485C273.315 200.551 273.239 200.592 273.155 200.601C273.072 200.61 272.988 200.585 272.923 200.532C272.857 200.48 272.816 200.403 272.807 200.32C272.798 200.236 272.823 200.153 272.875 200.088C273.725 199.039 276.493 196.29 277.891 196.711C278.174 196.795 278.525 197.04 278.59 197.727C279.143 203.448 279.9 212.856 280.702 222.816C281.893 237.605 283.242 254.359 283.685 255.414C283.719 255.461 283.739 255.517 283.743 255.575C283.748 255.633 283.736 255.691 283.709 255.743C283.683 255.794 283.642 255.838 283.593 255.868C283.543 255.899 283.486 255.915 283.428 255.915V255.915Z" fill="#494949"/>
<path d="M277.146 208.276C282.401 204.07 284.143 197.524 281.036 193.654C277.929 189.785 271.15 190.058 265.895 194.263C260.64 198.469 258.898 205.016 262.005 208.885C265.111 212.755 271.89 212.482 277.146 208.276Z" fill="#0CBC8B"/>
<path opacity="0.2" d="M277.146 208.276C282.401 204.07 284.143 197.524 281.036 193.654C277.929 189.785 271.15 190.058 265.895 194.263C260.64 198.469 258.898 205.016 262.005 208.885C265.111 212.755 271.89 212.482 277.146 208.276Z" fill="white"/>
<path d="M263.478 209.869C263.448 209.869 263.419 209.861 263.393 209.845C263.368 209.829 263.348 209.806 263.335 209.778C263.322 209.751 263.317 209.721 263.321 209.691C263.325 209.662 263.337 209.634 263.356 209.611L278.334 191.578C278.347 191.562 278.363 191.548 278.382 191.538C278.4 191.528 278.421 191.522 278.442 191.52C278.462 191.517 278.484 191.52 278.504 191.526C278.524 191.532 278.543 191.542 278.559 191.555C278.575 191.569 278.588 191.585 278.598 191.604C278.608 191.622 278.614 191.643 278.615 191.664C278.617 191.685 278.615 191.706 278.608 191.726C278.602 191.746 278.591 191.764 278.577 191.78L263.6 209.813C263.585 209.83 263.566 209.845 263.545 209.855C263.524 209.864 263.501 209.87 263.478 209.869Z" fill="white"/>
<path d="M286.694 252.049C286.644 252.049 286.594 252.037 286.549 252.014C286.504 251.991 286.465 251.957 286.436 251.916C286.407 251.875 286.388 251.827 286.381 251.777C286.374 251.727 286.378 251.677 286.395 251.629L292.021 235.475C292.187 235.001 292.469 234.575 292.842 234.238C293.215 233.9 293.667 233.661 294.156 233.543C294.646 233.426 295.157 233.432 295.643 233.563C296.129 233.693 296.575 233.943 296.939 234.29L299.914 237.127C299.974 237.185 300.01 237.264 300.011 237.348C300.013 237.432 299.982 237.513 299.924 237.574C299.866 237.635 299.786 237.67 299.702 237.672C299.618 237.674 299.537 237.642 299.476 237.584L296.502 234.747C296.214 234.474 295.862 234.276 295.479 234.173C295.095 234.07 294.691 234.065 294.305 234.158C293.919 234.251 293.562 234.44 293.268 234.706C292.973 234.972 292.75 235.308 292.619 235.683L286.993 251.837C286.972 251.899 286.931 251.952 286.878 251.99C286.824 252.029 286.76 252.049 286.694 252.049Z" fill="#494949"/>
<path d="M308.224 246.071C312.118 242.993 311.887 236.223 307.707 230.951C303.526 225.678 296.98 223.899 293.085 226.977C289.191 230.054 289.422 236.824 293.602 242.097C297.783 247.369 304.329 249.148 308.224 246.071Z" fill="#0CBC8B"/>
<path d="M280.872 254.885C280.801 254.885 280.731 254.861 280.676 254.817C280.62 254.773 280.58 254.711 280.564 254.642L271.123 215.229C271.058 214.961 270.921 214.715 270.725 214.519C270.53 214.324 270.284 214.186 270.016 214.12C269.747 214.055 269.465 214.065 269.201 214.149C268.938 214.233 268.703 214.388 268.522 214.597L265.611 217.955C265.556 218.018 265.478 218.057 265.395 218.064C265.311 218.07 265.228 218.042 265.164 217.987C265.101 217.932 265.062 217.855 265.056 217.771C265.05 217.687 265.077 217.605 265.132 217.541L268.043 214.183C268.3 213.886 268.634 213.666 269.009 213.547C269.384 213.427 269.784 213.413 270.166 213.506C270.548 213.599 270.897 213.796 271.175 214.074C271.452 214.353 271.647 214.702 271.739 215.084L281.18 254.496C281.19 254.537 281.191 254.578 281.185 254.619C281.178 254.661 281.164 254.7 281.142 254.735C281.12 254.771 281.092 254.801 281.058 254.826C281.024 254.85 280.986 254.868 280.945 254.877C280.921 254.883 280.897 254.885 280.872 254.885Z" fill="#494949"/>
<path d="M277.39 226.711C278.538 220.084 275.5 214.028 270.606 213.183C265.711 212.338 260.813 217.024 259.665 223.65C258.517 230.277 261.555 236.333 266.449 237.178C271.344 238.023 276.242 233.337 277.39 226.711Z" fill="#0CBC8B"/>
<path d="M283.428 255.915C283.415 255.915 283.402 255.914 283.389 255.912C283.348 255.907 283.308 255.894 283.272 255.874C283.235 255.853 283.204 255.826 283.178 255.793C283.152 255.76 283.134 255.723 283.122 255.683C283.111 255.643 283.108 255.601 283.113 255.56L289.142 206.689C289.208 206.157 289.426 205.655 289.771 205.243C290.115 204.832 290.572 204.528 291.085 204.37C291.598 204.211 292.146 204.203 292.664 204.348C293.181 204.493 293.645 204.784 294.001 205.186L300.892 212.978C300.919 213.009 300.941 213.046 300.954 213.085C300.968 213.124 300.973 213.166 300.971 213.207C300.968 213.249 300.957 213.289 300.939 213.327C300.921 213.364 300.895 213.397 300.864 213.425C300.833 213.452 300.797 213.473 300.757 213.487C300.718 213.5 300.676 213.506 300.635 213.503C300.593 213.501 300.553 213.49 300.515 213.472C300.478 213.454 300.444 213.428 300.417 213.397L293.527 205.605C293.252 205.294 292.893 205.069 292.493 204.957C292.093 204.845 291.67 204.851 291.273 204.974C290.876 205.096 290.524 205.331 290.257 205.649C289.991 205.967 289.822 206.355 289.772 206.766L283.742 255.637C283.733 255.714 283.696 255.784 283.638 255.835C283.58 255.886 283.505 255.914 283.428 255.915Z" fill="#494949"/>
<path d="M307.959 217.309C310.364 212.969 307.535 206.813 301.641 203.558C295.747 200.303 289.02 201.182 286.616 205.522C284.212 209.861 287.04 216.018 292.934 219.273C298.828 222.528 305.555 221.648 307.959 217.309Z" fill="#0CBC8B"/>
<path opacity="0.2" d="M308.224 246.071C312.118 242.993 311.887 236.223 307.707 230.951C303.526 225.678 296.98 223.899 293.085 226.977C289.191 230.054 289.422 236.824 293.602 242.097C297.783 247.369 304.329 249.148 308.224 246.071Z" fill="white"/>
<path opacity="0.5" d="M277.39 226.711C278.538 220.084 275.5 214.028 270.606 213.183C265.711 212.338 260.813 217.024 259.665 223.65C258.517 230.277 261.555 236.333 266.449 237.178C271.344 238.023 276.242 233.337 277.39 226.711Z" fill="white"/>
<path opacity="0.5" d="M307.959 217.309C310.364 212.969 307.535 206.813 301.641 203.558C295.747 200.303 289.02 201.182 286.616 205.522C284.212 209.861 287.04 216.018 292.934 219.273C298.828 222.528 305.555 221.648 307.959 217.309Z" fill="white"/>
<path d="M291.139 297.382H275.716L273.161 248.117H293.695L291.139 297.382Z" fill="#292A2E"/>
<path opacity="0.3" d="M291.139 297.382H275.716L273.161 248.117H293.695L291.139 297.382Z" fill="white"/>
<path d="M308.224 246.227C308.2 246.227 308.176 246.222 308.155 246.211C308.133 246.201 308.114 246.186 308.1 246.167L292.961 227.073C292.948 227.057 292.938 227.038 292.933 227.018C292.927 226.998 292.925 226.977 292.928 226.956C292.93 226.936 292.937 226.916 292.947 226.898C292.957 226.88 292.97 226.864 292.987 226.851C293.003 226.838 293.022 226.828 293.042 226.823C293.062 226.817 293.083 226.815 293.103 226.818C293.124 226.82 293.144 226.826 293.162 226.837C293.18 226.847 293.196 226.86 293.209 226.877L308.349 245.971C308.375 246.004 308.386 246.045 308.382 246.087C308.377 246.128 308.356 246.166 308.323 246.192C308.295 246.215 308.26 246.227 308.224 246.227V246.227Z" fill="white"/>
<path d="M306.953 218.838C306.919 218.838 306.886 218.827 306.86 218.807L287.487 204.685C287.471 204.673 287.456 204.657 287.446 204.639C287.435 204.622 287.428 204.602 287.424 204.581C287.421 204.561 287.422 204.54 287.427 204.52C287.432 204.5 287.441 204.481 287.453 204.464C287.465 204.447 287.481 204.433 287.498 204.422C287.516 204.411 287.536 204.404 287.556 204.401C287.577 204.398 287.598 204.398 287.618 204.403C287.638 204.408 287.658 204.417 287.674 204.429L307.046 218.552C307.073 218.571 307.092 218.599 307.102 218.631C307.112 218.662 307.112 218.696 307.102 218.727C307.091 218.759 307.071 218.786 307.045 218.806C307.018 218.825 306.986 218.836 306.953 218.836V218.838Z" fill="white"/>
<path d="M265.662 236.972C265.648 236.972 265.634 236.97 265.621 236.967C265.58 236.956 265.546 236.929 265.525 236.893C265.504 236.857 265.498 236.814 265.509 236.773L271.676 213.706C271.687 213.666 271.714 213.633 271.75 213.613C271.786 213.593 271.828 213.587 271.868 213.598C271.908 213.608 271.942 213.634 271.963 213.669C271.985 213.705 271.991 213.747 271.982 213.787L265.815 236.855C265.806 236.888 265.786 236.918 265.758 236.939C265.73 236.961 265.697 236.972 265.662 236.972V236.972Z" fill="white"/>
<path d="M57.2798 199.749H31.8398V207.139H57.2798V199.749Z" fill="#F4F4F4"/>
<path opacity="0.05" d="M38.5895 199.749H35.2561V207.139H38.5895V199.749Z" fill="#292A2E"/>
<path d="M54.0291 201.356H40.1686V205.735H54.0291V201.356Z" fill="white"/>
<path d="M77.5717 200.713L53.9335 190.406L50.9708 197.178L74.6089 207.486L77.5717 200.713Z" fill="#F4F4F4"/>
<path opacity="0.05" d="M77.5717 200.713L53.9335 190.406L50.9708 197.178L74.6089 207.486L77.5717 200.713Z" fill="#292A2E"/>
<path d="M74.3974 199.329L71.3 197.978L68.3373 204.751L71.4346 206.101L74.3974 199.329Z" fill="white"/>
<path d="M69.1889 198.811L56.3104 193.195L54.5547 197.208L67.4333 202.824L69.1889 198.811Z" fill="white"/>
<path opacity="0.05" d="M77.6161 293.368H71.223V297.631H77.6161V293.368Z" fill="#292A2E"/>
<path opacity="0.05" d="M12.2535 293.368H5.8604V297.631H12.2535V293.368Z" fill="#292A2E"/>
<path d="M83.4765 207.486H0V293.224H83.4765V207.486Z" fill="#F4F4F4"/>
<path opacity="0.03" d="M83.4765 207.486H0V293.224H83.4765V207.486Z" fill="#292A2E"/>
<path d="M98.9459 207.486H15.4694V293.224H98.9459V207.486Z" fill="#F4F4F4"/>
<path opacity="0.05" d="M93.0858 293.368H86.6927V297.631H93.0858V293.368Z" fill="#292A2E"/>
<path opacity="0.05" d="M27.7229 293.368H21.3298V297.631H27.7229V293.368Z" fill="#292A2E"/>
<path opacity="0.7" d="M95.8127 211.501H18.6032V227.973H95.8127V211.501Z" fill="white"/>
<path opacity="0.7" d="M95.8127 232.005H18.6032V248.477H95.8127V232.005Z" fill="white"/>
<path opacity="0.7" d="M95.8127 252.509H18.6032V268.981H95.8127V252.509Z" fill="white"/>
<path opacity="0.05" d="M57.2079 222.042C58.4829 222.042 59.5164 221.01 59.5164 219.737C59.5164 218.464 58.4829 217.433 57.2079 217.433C55.933 217.433 54.8994 218.464 54.8994 219.737C54.8994 221.01 55.933 222.042 57.2079 222.042Z" fill="#292A2E"/>
<path opacity="0.05" d="M57.2079 242.546C58.4829 242.546 59.5164 241.514 59.5164 240.241C59.5164 238.968 58.4829 237.937 57.2079 237.937C55.933 237.937 54.8994 238.968 54.8994 240.241C54.8994 241.514 55.933 242.546 57.2079 242.546Z" fill="#292A2E"/>
<path opacity="0.05" d="M57.2079 263.05C58.4829 263.05 59.5164 262.018 59.5164 260.745C59.5164 259.472 58.4829 258.44 57.2079 258.44C55.933 258.44 54.8994 259.472 54.8994 260.745C54.8994 262.018 55.933 263.05 57.2079 263.05Z" fill="#292A2E"/>
<path opacity="0.7" d="M95.8127 273.474H18.6032V289.946H95.8127V273.474Z" fill="white"/>
<path opacity="0.05" d="M57.2079 284.015C58.4829 284.015 59.5164 282.983 59.5164 281.71C59.5164 280.438 58.4829 279.406 57.2079 279.406C55.933 279.406 54.8994 280.438 54.8994 281.71C54.8994 282.983 55.933 284.015 57.2079 284.015Z" fill="#292A2E"/>
<path d="M201.663 229.126H37.9197C35.7096 229.126 33.59 228.249 32.0272 226.689C30.4644 225.129 29.5864 223.012 29.5864 220.806L35.2872 36.2617H215.381L209.997 220.806C209.997 223.012 209.119 225.129 207.556 226.689C205.993 228.249 203.874 229.126 201.663 229.126Z" fill="#292A2E"/>
<path opacity="0.9" d="M201.663 229.126H37.9197C35.7096 229.126 33.59 228.249 32.0272 226.689C30.4644 225.129 29.5864 223.012 29.5864 220.806L35.2872 36.2617H215.381L209.997 220.806C209.997 223.012 209.119 225.129 207.556 226.689C205.993 228.249 203.874 229.126 201.663 229.126Z" fill="white"/>
<path d="M201.663 229.442H37.9197C35.6263 229.439 33.4276 228.529 31.806 226.91C30.1843 225.291 29.2721 223.096 29.2694 220.806L34.9702 35.9455H215.698L210.313 220.806C210.311 223.095 209.399 225.291 207.777 226.91C206.155 228.529 203.957 229.439 201.663 229.442ZM35.6036 36.5779L29.9028 220.806C29.9052 222.928 30.7507 224.962 32.2536 226.463C33.7565 227.963 35.7942 228.807 37.9197 228.809H201.663C203.789 228.807 205.826 227.963 207.329 226.463C208.832 224.962 209.678 222.928 209.68 220.806L215.064 36.5779H35.6036Z" fill="#292A2E"/>
<path d="M207.681 17.9636H43.9372C41.6438 17.9662 39.4451 18.8768 37.8235 20.4958C36.2018 22.1148 35.2895 24.3099 35.2869 26.5996L34.9702 36.5778H215.698L216.331 26.5996C216.328 24.31 215.416 22.1149 213.795 20.4959C212.173 18.8769 209.974 17.9662 207.681 17.9636Z" fill="#0C0C0C"/>
<path d="M210.848 17.9636H45.204C42.9107 17.9662 40.712 18.8768 39.0903 20.4958C37.4686 22.1148 36.5564 24.3099 36.5537 26.5996V36.5778H219.498V26.5996C219.495 24.31 218.583 22.1149 216.962 20.4959C215.34 18.8769 213.141 17.9662 210.848 17.9636Z" fill="#292A2E"/>
<path d="M36.8707 36.2617H219.182V223.968C219.182 226.174 218.304 228.291 216.741 229.851C215.178 231.411 213.059 232.288 210.848 232.288H45.204C42.9939 232.288 40.8743 231.411 39.3115 229.851C37.7487 228.291 36.8707 226.174 36.8707 223.968V36.2617V36.2617Z" fill="white"/>
<path d="M210.848 232.604H45.204C42.9107 232.601 40.712 231.691 39.0903 230.072C37.4686 228.453 36.5564 226.257 36.5537 223.968V35.9455H219.498V223.968C219.495 226.257 218.583 228.453 216.962 230.072C215.34 231.691 213.141 232.601 210.848 232.604V232.604ZM37.1871 36.5779V223.968C37.1896 226.09 38.035 228.124 39.5379 229.625C41.0409 231.125 43.0786 231.969 45.204 231.971H210.848C212.973 231.969 215.011 231.125 216.514 229.625C218.017 228.124 218.862 226.09 218.865 223.968V36.5779H37.1871Z" fill="#292A2E"/>
<path d="M58.7773 10.4902C56.7927 10.4925 54.89 11.2806 53.4867 12.6816C52.0834 14.0826 51.2941 15.9822 51.2918 17.9636H51.9252C51.9249 16.6507 52.3031 15.3654 53.0144 14.2612C53.7258 13.157 54.7404 12.2805 55.9371 11.7363C57.1339 11.192 58.4622 11.0031 59.7635 11.192C61.0648 11.3809 62.2842 11.9397 63.2762 12.8016C64.2681 13.6635 64.9907 14.7922 65.3577 16.0529C65.7247 17.3137 65.7205 18.6532 65.3458 19.9117C64.971 21.1701 64.2415 22.2944 63.2442 23.1502C62.247 24.006 61.0242 24.5572 59.7217 24.7381C59.612 24.5123 59.4249 24.3332 59.1944 24.2332C58.9639 24.1331 58.7052 24.1187 58.4649 24.1926C58.2247 24.2665 58.0189 24.4238 57.8848 24.636C57.7507 24.8482 57.697 25.1013 57.7336 25.3496C57.7701 25.5979 57.8945 25.8249 58.0842 25.9896C58.2738 26.1543 58.5162 26.2457 58.7676 26.2475C59.0189 26.2492 59.2626 26.161 59.4545 25.999C59.6464 25.8369 59.7739 25.6116 59.8138 25.3639C61.6911 25.1022 63.399 24.1392 64.5928 22.6693C65.7865 21.1994 66.3773 19.332 66.2457 17.4442C66.1141 15.5564 65.2701 13.7887 63.8839 12.498C62.4977 11.2073 60.6727 10.4898 58.7773 10.4902V10.4902Z" fill="#F4F4F4"/>
<path d="M204.76 17.9636C204.747 15.9899 203.953 14.1014 202.551 12.7103C201.148 11.3193 199.252 10.5385 197.275 10.5385C195.298 10.5385 193.401 11.3193 191.999 12.7103C190.596 14.1014 189.802 15.9899 189.789 17.9636H190.422C190.422 16.6507 190.8 15.3654 191.512 14.2612C192.223 13.157 193.238 12.2805 194.434 11.7363C195.631 11.192 196.959 11.0031 198.261 11.192C199.562 11.3809 200.781 11.9397 201.773 12.8016C202.765 13.6635 203.488 14.7922 203.855 16.053C204.222 17.3137 204.218 18.6532 203.843 19.9117C203.468 21.1701 202.739 22.2944 201.741 23.1502C200.744 24.006 199.521 24.5572 198.219 24.7381C198.109 24.5123 197.922 24.3332 197.692 24.2332C197.461 24.1331 197.202 24.1187 196.962 24.1926C196.722 24.2665 196.516 24.4238 196.382 24.636C196.248 24.8482 196.194 25.1014 196.231 25.3496C196.267 25.5979 196.392 25.8249 196.581 25.9896C196.771 26.1543 197.013 26.2458 197.265 26.2475C197.516 26.2492 197.76 26.1611 197.952 25.999C198.144 25.8369 198.271 25.6116 198.311 25.3639C200.098 25.1122 201.735 24.2252 202.919 22.8657C204.104 21.5062 204.758 19.7656 204.76 17.9636V17.9636Z" fill="#F4F4F4"/>
<path d="M184.975 17.9636C184.975 15.9815 184.186 14.0806 182.782 12.6791C181.379 11.2776 179.475 10.4902 177.489 10.4902C175.504 10.4902 173.6 11.2776 172.196 12.6791C170.793 14.0806 170.004 15.9815 170.004 17.9636H170.637C170.637 16.6508 171.015 15.3657 171.727 14.2616C172.438 13.1575 173.453 12.2811 174.649 11.737C175.846 11.1928 177.174 11.0039 178.475 11.1927C179.776 11.3816 180.996 11.9403 181.988 12.8021C182.979 13.6639 183.702 14.7924 184.069 16.053C184.436 17.3136 184.432 18.6531 184.057 19.9114C183.683 21.1698 182.953 22.294 181.956 23.1498C180.959 24.0057 179.737 24.557 178.434 24.7381C178.325 24.5121 178.138 24.3327 177.907 24.2325C177.677 24.1322 177.418 24.1176 177.177 24.1914C176.937 24.2652 176.731 24.4225 176.596 24.6348C176.462 24.8471 176.408 25.1003 176.445 25.3488C176.481 25.5973 176.606 25.8245 176.795 25.9894C176.985 26.1542 177.227 26.2459 177.479 26.2477C177.731 26.2495 177.974 26.1614 178.166 25.9993C178.359 25.8372 178.486 25.6118 178.526 25.3639C180.313 25.1121 181.95 24.225 183.134 22.8655C184.319 21.5061 184.972 19.7655 184.975 17.9636V17.9636Z" fill="#F4F4F4"/>
<path d="M165.19 17.9636C165.177 15.9899 164.382 14.1014 162.98 12.7103C161.578 11.3193 159.681 10.5385 157.704 10.5385C155.727 10.5385 153.83 11.3193 152.428 12.7103C151.026 14.1014 150.231 15.9899 150.218 17.9636H150.852C150.852 16.6507 151.23 15.3654 151.941 14.2612C152.652 13.157 153.667 12.2805 154.864 11.7363C156.06 11.192 157.389 11.0031 158.69 11.192C159.991 11.3809 161.211 11.9397 162.203 12.8016C163.195 13.6635 163.917 14.7922 164.284 16.053C164.651 17.3137 164.647 18.6532 164.272 19.9117C163.898 21.1701 163.168 22.2944 162.171 23.1502C161.174 24.006 159.951 24.5572 158.648 24.7381C158.539 24.5123 158.352 24.3332 158.121 24.2332C157.89 24.1331 157.632 24.1187 157.392 24.1926C157.151 24.2665 156.946 24.4238 156.811 24.636C156.677 24.8482 156.624 25.1014 156.66 25.3496C156.697 25.5979 156.821 25.8249 157.011 25.9896C157.2 26.1543 157.443 26.2458 157.694 26.2475C157.946 26.2492 158.189 26.1611 158.381 25.999C158.573 25.8369 158.7 25.6116 158.74 25.3639C160.528 25.1122 162.164 24.2252 163.349 22.8657C164.533 21.5062 165.187 19.7656 165.19 17.9636V17.9636Z" fill="#F4F4F4"/>
<path d="M145.404 17.9636C145.404 16.9821 145.21 16.0103 144.834 15.1036C144.458 14.1969 143.907 13.3731 143.212 12.6791C142.517 11.9851 141.691 11.4346 140.783 11.0591C139.875 10.6835 138.902 10.4902 137.919 10.4902C136.936 10.4902 135.962 10.6835 135.054 11.0591C134.146 11.4346 133.321 11.9851 132.626 12.6791C131.931 13.3731 131.379 14.1969 131.003 15.1036C130.627 16.0103 130.433 16.9821 130.433 17.9636H131.067C131.066 16.6508 131.445 15.3656 132.156 14.2615C132.867 13.1574 133.882 12.281 135.078 11.7368C136.275 11.1927 137.603 11.0038 138.905 11.1927C140.206 11.3816 141.425 11.9403 142.417 12.8022C143.409 13.6641 144.131 14.7927 144.498 16.0533C144.865 17.314 144.861 18.6534 144.487 19.9118C144.112 21.1702 143.382 22.2943 142.385 23.1501C141.388 24.0059 140.165 24.5572 138.863 24.7381C138.753 24.5123 138.566 24.3332 138.336 24.2332C138.105 24.1331 137.847 24.1187 137.606 24.1926C137.366 24.2665 137.16 24.4238 137.026 24.636C136.892 24.8482 136.838 25.1013 136.875 25.3496C136.912 25.5979 137.036 25.8249 137.226 25.9896C137.415 26.1543 137.658 26.2457 137.909 26.2475C138.16 26.2492 138.404 26.161 138.596 25.999C138.788 25.8369 138.915 25.6116 138.955 25.3639C140.742 25.1122 142.379 24.2251 143.563 22.8656C144.748 21.5061 145.402 19.7655 145.404 17.9636V17.9636Z" fill="#F4F4F4"/>
<path d="M125.619 17.9636C125.606 15.9899 124.812 14.1014 123.409 12.7103C122.007 11.3193 120.11 10.5385 118.133 10.5385C116.156 10.5385 114.26 11.3193 112.857 12.7103C111.455 14.1014 110.661 15.9899 110.648 17.9636H111.281C111.281 16.6507 111.659 15.3654 112.37 14.2612C113.082 13.157 114.096 12.2805 115.293 11.7363C116.49 11.192 117.818 11.0031 119.119 11.192C120.421 11.3809 121.64 11.9397 122.632 12.8016C123.624 13.6635 124.347 14.7922 124.714 16.053C125.081 17.3137 125.076 18.6532 124.702 19.9117C124.327 21.1701 123.597 22.2944 122.6 23.1502C121.603 24.006 120.38 24.5572 119.078 24.7381C118.968 24.5123 118.781 24.3332 118.55 24.2332C118.32 24.1331 118.061 24.1187 117.821 24.1926C117.581 24.2665 117.375 24.4238 117.241 24.636C117.107 24.8482 117.053 25.1014 117.089 25.3496C117.126 25.5979 117.25 25.8249 117.44 25.9896C117.63 26.1543 117.872 26.2458 118.123 26.2475C118.375 26.2492 118.618 26.1611 118.81 25.999C119.002 25.8369 119.13 25.6116 119.17 25.3639C120.957 25.1122 122.593 24.2252 123.778 22.8657C124.963 21.5062 125.616 19.7656 125.619 17.9636V17.9636Z" fill="#F4F4F4"/>
<path d="M105.833 17.9636C105.833 15.9815 105.045 14.0806 103.641 12.6791C102.237 11.2776 100.333 10.4902 98.3479 10.4902C96.3627 10.4902 94.4587 11.2776 93.0549 12.6791C91.6511 14.0806 90.8625 15.9815 90.8625 17.9636H91.4959C91.4957 16.6508 91.8738 15.3656 92.5852 14.2615C93.2966 13.1574 94.3111 12.281 95.5078 11.7368C96.7044 11.1927 98.0327 11.0038 99.3339 11.1927C100.635 11.3816 101.854 11.9403 102.846 12.8022C103.838 13.6641 104.561 14.7927 104.928 16.0533C105.295 17.314 105.291 18.6534 104.916 19.9118C104.541 21.1702 103.812 22.2943 102.815 23.1501C101.817 24.0059 100.595 24.5572 99.2924 24.7381C99.1826 24.5123 98.9956 24.3332 98.7651 24.2332C98.5346 24.1331 98.2758 24.1187 98.0356 24.1926C97.7954 24.2665 97.5896 24.4238 97.4555 24.636C97.3213 24.8482 97.2677 25.1013 97.3043 25.3496C97.3408 25.5979 97.4652 25.8249 97.6548 25.9896C97.8445 26.1543 98.0869 26.2457 98.3383 26.2475C98.5896 26.2492 98.8333 26.161 99.0252 25.999C99.2171 25.8369 99.3446 25.6116 99.3845 25.3639C101.172 25.1122 102.808 24.2251 103.993 22.8656C105.177 21.5061 105.831 19.7655 105.833 17.9636Z" fill="#F4F4F4"/>
<path d="M86.0482 17.9636C86.0353 15.9899 85.241 14.1014 83.8386 12.7103C82.4362 11.3193 80.5395 10.5385 78.5626 10.5385C76.5857 10.5385 74.689 11.3193 73.2866 12.7103C71.8842 14.1014 71.0899 15.9899 71.077 17.9636H71.7104C71.7101 16.6507 72.0882 15.3654 72.7996 14.2612C73.511 13.157 74.5256 12.2805 75.7223 11.7363C76.919 11.192 78.2473 11.0031 79.5487 11.192C80.85 11.3809 82.0694 11.9397 83.0614 12.8016C84.0533 13.6635 84.7759 14.7922 85.1429 16.053C85.5098 17.3137 85.5057 18.6532 85.131 19.9117C84.7562 21.1701 84.0267 22.2944 83.0294 23.1502C82.0322 24.006 80.8093 24.5572 79.5069 24.7381C79.3971 24.5123 79.2101 24.3332 78.9796 24.2332C78.7491 24.1331 78.4903 24.1187 78.2501 24.1926C78.0099 24.2665 77.8041 24.4238 77.67 24.636C77.5358 24.8482 77.4822 25.1014 77.5188 25.3496C77.5553 25.5979 77.6797 25.8249 77.8693 25.9896C78.059 26.1543 78.3014 26.2458 78.5528 26.2475C78.8041 26.2492 79.0478 26.1611 79.2397 25.999C79.4316 25.8369 79.559 25.6116 79.599 25.3639C81.3863 25.1122 83.0226 24.2252 84.2073 22.8657C85.3921 21.5062 86.0457 19.7656 86.0482 17.9636V17.9636Z" fill="#F4F4F4"/>
<g opacity="0.6">
<path d="M58.7773 10.4902C56.7927 10.4925 54.89 11.2806 53.4867 12.6816C52.0834 14.0826 51.2941 15.9822 51.2918 17.9636H51.9252C51.9249 16.6507 52.3031 15.3654 53.0144 14.2612C53.7258 13.157 54.7404 12.2805 55.9371 11.7363C57.1339 11.192 58.4622 11.0031 59.7635 11.192C61.0648 11.3809 62.2842 11.9397 63.2762 12.8016C64.2681 13.6635 64.9907 14.7922 65.3577 16.0529C65.7247 17.3137 65.7205 18.6532 65.3458 19.9117C64.971 21.1701 64.2415 22.2944 63.2442 23.1502C62.247 24.006 61.0242 24.5572 59.7217 24.7381C59.612 24.5123 59.4249 24.3332 59.1944 24.2332C58.9639 24.1331 58.7052 24.1187 58.4649 24.1926C58.2247 24.2665 58.0189 24.4238 57.8848 24.636C57.7507 24.8482 57.697 25.1013 57.7336 25.3496C57.7701 25.5979 57.8945 25.8249 58.0842 25.9896C58.2738 26.1543 58.5162 26.2457 58.7676 26.2475C59.0189 26.2492 59.2626 26.161 59.4545 25.999C59.6464 25.8369 59.7739 25.6116 59.8138 25.3639C61.6911 25.1022 63.399 24.1392 64.5928 22.6693C65.7865 21.1994 66.3773 19.332 66.2457 17.4442C66.1141 15.5564 65.2701 13.7887 63.8839 12.498C62.4977 11.2073 60.6727 10.4898 58.7773 10.4902V10.4902Z" fill="#292A2E"/>
<path d="M204.76 17.9636C204.747 15.9899 203.953 14.1014 202.551 12.7103C201.148 11.3193 199.252 10.5385 197.275 10.5385C195.298 10.5385 193.401 11.3193 191.999 12.7103C190.596 14.1014 189.802 15.9899 189.789 17.9636H190.422C190.422 16.6507 190.8 15.3654 191.512 14.2612C192.223 13.157 193.238 12.2805 194.434 11.7363C195.631 11.192 196.959 11.0031 198.261 11.192C199.562 11.3809 200.781 11.9397 201.773 12.8016C202.765 13.6635 203.488 14.7922 203.855 16.053C204.222 17.3137 204.218 18.6532 203.843 19.9117C203.468 21.1701 202.739 22.2944 201.741 23.1502C200.744 24.006 199.521 24.5572 198.219 24.7381C198.109 24.5123 197.922 24.3332 197.692 24.2332C197.461 24.1331 197.202 24.1187 196.962 24.1926C196.722 24.2665 196.516 24.4238 196.382 24.636C196.248 24.8482 196.194 25.1014 196.231 25.3496C196.267 25.5979 196.392 25.8249 196.581 25.9896C196.771 26.1543 197.013 26.2458 197.265 26.2475C197.516 26.2492 197.76 26.1611 197.952 25.999C198.144 25.8369 198.271 25.6116 198.311 25.3639C200.098 25.1122 201.735 24.2252 202.919 22.8657C204.104 21.5062 204.758 19.7656 204.76 17.9636V17.9636Z" fill="#292A2E"/>
<path d="M184.975 17.9636C184.975 15.9815 184.186 14.0806 182.782 12.6791C181.379 11.2776 179.475 10.4902 177.489 10.4902C175.504 10.4902 173.6 11.2776 172.196 12.6791C170.793 14.0806 170.004 15.9815 170.004 17.9636H170.637C170.637 16.6508 171.015 15.3657 171.727 14.2616C172.438 13.1575 173.453 12.2811 174.649 11.737C175.846 11.1928 177.174 11.0039 178.475 11.1927C179.776 11.3816 180.996 11.9403 181.988 12.8021C182.979 13.6639 183.702 14.7924 184.069 16.053C184.436 17.3136 184.432 18.6531 184.057 19.9114C183.683 21.1698 182.953 22.294 181.956 23.1498C180.959 24.0057 179.737 24.557 178.434 24.7381C178.325 24.5121 178.138 24.3327 177.907 24.2325C177.677 24.1322 177.418 24.1176 177.177 24.1914C176.937 24.2652 176.731 24.4225 176.596 24.6348C176.462 24.8471 176.408 25.1003 176.445 25.3488C176.481 25.5973 176.606 25.8245 176.795 25.9894C176.985 26.1542 177.227 26.2459 177.479 26.2477C177.731 26.2495 177.974 26.1614 178.166 25.9993C178.359 25.8372 178.486 25.6118 178.526 25.3639C180.313 25.1121 181.95 24.225 183.134 22.8655C184.319 21.5061 184.972 19.7655 184.975 17.9636V17.9636Z" fill="#292A2E"/>
<path d="M165.19 17.9636C165.177 15.9899 164.382 14.1014 162.98 12.7103C161.578 11.3193 159.681 10.5385 157.704 10.5385C155.727 10.5385 153.83 11.3193 152.428 12.7103C151.026 14.1014 150.231 15.9899 150.218 17.9636H150.852C150.852 16.6507 151.23 15.3654 151.941 14.2612C152.652 13.157 153.667 12.2805 154.864 11.7363C156.06 11.192 157.389 11.0031 158.69 11.192C159.991 11.3809 161.211 11.9397 162.203 12.8016C163.195 13.6635 163.917 14.7922 164.284 16.053C164.651 17.3137 164.647 18.6532 164.272 19.9117C163.898 21.1701 163.168 22.2944 162.171 23.1502C161.174 24.006 159.951 24.5572 158.648 24.7381C158.539 24.5123 158.352 24.3332 158.121 24.2332C157.89 24.1331 157.632 24.1187 157.392 24.1926C157.151 24.2665 156.946 24.4238 156.811 24.636C156.677 24.8482 156.624 25.1014 156.66 25.3496C156.697 25.5979 156.821 25.8249 157.011 25.9896C157.2 26.1543 157.443 26.2458 157.694 26.2475C157.946 26.2492 158.189 26.1611 158.381 25.999C158.573 25.8369 158.7 25.6116 158.74 25.3639C160.528 25.1122 162.164 24.2252 163.349 22.8657C164.533 21.5062 165.187 19.7656 165.19 17.9636V17.9636Z" fill="#292A2E"/>
<path d="M145.404 17.9636C145.404 16.9821 145.21 16.0103 144.834 15.1036C144.458 14.1969 143.907 13.3731 143.212 12.6791C142.517 11.9851 141.691 11.4346 140.783 11.0591C139.875 10.6835 138.902 10.4902 137.919 10.4902C136.936 10.4902 135.962 10.6835 135.054 11.0591C134.146 11.4346 133.321 11.9851 132.626 12.6791C131.931 13.3731 131.379 14.1969 131.003 15.1036C130.627 16.0103 130.433 16.9821 130.433 17.9636H131.067C131.066 16.6508 131.445 15.3656 132.156 14.2615C132.867 13.1574 133.882 12.281 135.078 11.7368C136.275 11.1927 137.603 11.0038 138.905 11.1927C140.206 11.3816 141.425 11.9403 142.417 12.8022C143.409 13.6641 144.131 14.7927 144.498 16.0533C144.865 17.314 144.861 18.6534 144.487 19.9118C144.112 21.1702 143.382 22.2943 142.385 23.1501C141.388 24.0059 140.165 24.5572 138.863 24.7381C138.753 24.5123 138.566 24.3332 138.336 24.2332C138.105 24.1331 137.847 24.1187 137.606 24.1926C137.366 24.2665 137.16 24.4238 137.026 24.636C136.892 24.8482 136.838 25.1013 136.875 25.3496C136.912 25.5979 137.036 25.8249 137.226 25.9896C137.415 26.1543 137.658 26.2457 137.909 26.2475C138.16 26.2492 138.404 26.161 138.596 25.999C138.788 25.8369 138.915 25.6116 138.955 25.3639C140.742 25.1122 142.379 24.2251 143.563 22.8656C144.748 21.5061 145.402 19.7655 145.404 17.9636V17.9636Z" fill="#292A2E"/>
<path d="M125.619 17.9636C125.606 15.9899 124.812 14.1014 123.409 12.7103C122.007 11.3193 120.11 10.5385 118.133 10.5385C116.156 10.5385 114.26 11.3193 112.857 12.7103C111.455 14.1014 110.661 15.9899 110.648 17.9636H111.281C111.281 16.6507 111.659 15.3654 112.37 14.2612C113.082 13.157 114.096 12.2805 115.293 11.7363C116.49 11.192 117.818 11.0031 119.119 11.192C120.421 11.3809 121.64 11.9397 122.632 12.8016C123.624 13.6635 124.347 14.7922 124.714 16.053C125.081 17.3137 125.076 18.6532 124.702 19.9117C124.327 21.1701 123.597 22.2944 122.6 23.1502C121.603 24.006 120.38 24.5572 119.078 24.7381C118.968 24.5123 118.781 24.3332 118.55 24.2332C118.32 24.1331 118.061 24.1187 117.821 24.1926C117.581 24.2665 117.375 24.4238 117.241 24.636C117.107 24.8482 117.053 25.1014 117.089 25.3496C117.126 25.5979 117.25 25.8249 117.44 25.9896C117.63 26.1543 117.872 26.2458 118.123 26.2475C118.375 26.2492 118.618 26.1611 118.81 25.999C119.002 25.8369 119.13 25.6116 119.17 25.3639C120.957 25.1122 122.593 24.2252 123.778 22.8657C124.963 21.5062 125.616 19.7656 125.619 17.9636V17.9636Z" fill="#292A2E"/>
<path d="M105.833 17.9636C105.833 15.9815 105.045 14.0806 103.641 12.6791C102.237 11.2776 100.333 10.4902 98.3479 10.4902C96.3627 10.4902 94.4587 11.2776 93.0549 12.6791C91.6511 14.0806 90.8625 15.9815 90.8625 17.9636H91.4959C91.4957 16.6508 91.8738 15.3656 92.5852 14.2615C93.2966 13.1574 94.3111 12.281 95.5078 11.7368C96.7044 11.1927 98.0327 11.0038 99.3339 11.1927C100.635 11.3816 101.854 11.9403 102.846 12.8022C103.838 13.6641 104.561 14.7927 104.928 16.0533C105.295 17.314 105.291 18.6534 104.916 19.9118C104.541 21.1702 103.812 22.2943 102.815 23.1501C101.817 24.0059 100.595 24.5572 99.2924 24.7381C99.1826 24.5123 98.9956 24.3332 98.7651 24.2332C98.5346 24.1331 98.2758 24.1187 98.0356 24.1926C97.7954 24.2665 97.5896 24.4238 97.4555 24.636C97.3213 24.8482 97.2677 25.1013 97.3043 25.3496C97.3408 25.5979 97.4652 25.8249 97.6548 25.9896C97.8445 26.1543 98.0869 26.2457 98.3383 26.2475C98.5896 26.2492 98.8333 26.161 99.0252 25.999C99.2171 25.8369 99.3446 25.6116 99.3845 25.3639C101.172 25.1122 102.808 24.2251 103.993 22.8656C105.177 21.5061 105.831 19.7655 105.833 17.9636Z" fill="#292A2E"/>
<path d="M86.0482 17.9636C86.0353 15.9899 85.241 14.1014 83.8386 12.7103C82.4362 11.3193 80.5395 10.5385 78.5626 10.5385C76.5857 10.5385 74.689 11.3193 73.2866 12.7103C71.8842 14.1014 71.0899 15.9899 71.077 17.9636H71.7104C71.7101 16.6507 72.0882 15.3654 72.7996 14.2612C73.511 13.157 74.5256 12.2805 75.7223 11.7363C76.919 11.192 78.2473 11.0031 79.5487 11.192C80.85 11.3809 82.0694 11.9397 83.0614 12.8016C84.0533 13.6635 84.7759 14.7922 85.1429 16.053C85.5098 17.3137 85.5057 18.6532 85.131 19.9117C84.7562 21.1701 84.0267 22.2944 83.0294 23.1502C82.0322 24.006 80.8093 24.5572 79.5069 24.7381C79.3971 24.5123 79.2101 24.3332 78.9796 24.2332C78.7491 24.1331 78.4903 24.1187 78.2501 24.1926C78.0099 24.2665 77.8041 24.4238 77.67 24.636C77.5358 24.8482 77.4822 25.1014 77.5188 25.3496C77.5553 25.5979 77.6797 25.8249 77.8693 25.9896C78.059 26.1543 78.3014 26.2458 78.5528 26.2475C78.8041 26.2492 79.0478 26.1611 79.2397 25.999C79.4316 25.8369 79.559 25.6116 79.599 25.3639C81.3863 25.1122 83.0226 24.2252 84.2073 22.8657C85.3921 21.5062 86.0457 19.7656 86.0482 17.9636V17.9636Z" fill="#292A2E"/>
</g>
<g opacity="0.72">
<path d="M201.876 56.7513H53.3156C53.2316 56.7513 53.151 56.718 53.0916 56.6587C53.0322 56.5994 52.9989 56.519 52.9989 56.4351C52.9989 56.3512 53.0322 56.2708 53.0916 56.2115C53.151 56.1522 53.2316 56.1189 53.3156 56.1189H201.876C201.96 56.1189 202.041 56.1522 202.1 56.2115C202.159 56.2708 202.193 56.3512 202.193 56.4351C202.193 56.519 202.159 56.5994 202.1 56.6587C202.041 56.718 201.96 56.7513 201.876 56.7513Z" fill="#292A2E"/>
</g>
<g opacity="0.72">
<path d="M201.876 74.6782H53.3156C53.2316 74.6782 53.151 74.6449 53.0916 74.5856C53.0322 74.5263 52.9989 74.4458 52.9989 74.362C52.9989 74.2781 53.0322 74.1977 53.0916 74.1384C53.151 74.0791 53.2316 74.0458 53.3156 74.0458H201.876C201.96 74.0458 202.041 74.0791 202.1 74.1384C202.159 74.1977 202.193 74.2781 202.193 74.362C202.193 74.4458 202.159 74.5263 202.1 74.5856C202.041 74.6449 201.96 74.6782 201.876 74.6782Z" fill="#292A2E"/>
</g>
<g opacity="0.72">
<path d="M118.052 92.6054H53.3162C53.2322 92.6054 53.1517 92.572 53.0923 92.5127C53.0329 92.4534 52.9995 92.373 52.9995 92.2892C52.9995 92.2053 53.0329 92.1249 53.0923 92.0656C53.1517 92.0063 53.2322 91.973 53.3162 91.973H118.052C118.136 91.973 118.216 92.0063 118.276 92.0656C118.335 92.1249 118.368 92.2053 118.368 92.2892C118.368 92.373 118.335 92.4534 118.276 92.5127C118.216 92.572 118.136 92.6054 118.052 92.6054Z" fill="#292A2E"/>
</g>
<path d="M272.64 150.202C274.041 150.202 275.421 149.864 276.663 149.216C277.904 148.569 278.971 147.632 279.772 146.485C280.573 145.337 281.084 144.014 281.263 142.627C281.441 141.24 281.282 139.83 280.797 138.518C280.305 137.186 268.77 106.691 266.574 101.041L250.315 107.618C251.55 110.795 256.023 122.837 259.617 132.537L253.646 131.89L251.767 149.151L271.699 150.152C272.012 150.186 272.326 150.202 272.64 150.202V150.202Z" fill="#F26E22"/>
<path d="M129.653 107.35L135.663 85.8994L277.265 123.664L271.255 145.114L129.653 107.35Z" fill="#F26E22"/>
<path opacity="0.5" d="M129.653 107.35L135.663 85.8994L277.265 123.664L271.255 145.114L129.653 107.35Z" fill="white"/>
<path d="M286.799 149.456L292.808 128.005L277.267 123.665L271.257 145.116L286.799 149.456Z" fill="#262626"/>
<path d="M129.653 107.349C129.653 107.349 125.576 102.786 121.933 98.6857C119.046 95.4329 116.433 92.4708 116.353 92.3086C116.273 92.1464 120.197 90.8199 124.53 89.4204C129.796 87.7186 135.664 85.9002 135.664 85.9002L129.653 107.349Z" fill="#F26E22"/>
<path opacity="0.9" d="M129.653 107.349C129.653 107.349 125.576 102.786 121.933 98.6857C119.046 95.4329 116.433 92.4708 116.353 92.3086C116.273 92.1464 120.197 90.8199 124.53 89.4204C129.796 87.7186 135.664 85.9002 135.664 85.9002L129.653 107.349Z" fill="white"/>
<path d="M121.933 98.6855C119.046 95.4328 116.433 92.4707 116.353 92.3084C116.273 92.1462 120.197 90.8198 124.53 89.4203L121.933 98.6855Z" fill="#262626"/>
<path d="M131.566 100.682L273.205 138.047L272.935 139.026L131.295 101.662L131.566 100.682Z" fill="white"/>
<path d="M133.914 92.2892L275.553 129.653L275.282 130.633L133.643 93.2687L133.914 92.2892Z" fill="white"/>
<path d="M254.183 284.009C254.183 284.009 252.753 291.409 245.813 291.822C238.873 292.236 240.378 297.755 240.378 297.755H266.899V284.526L254.183 284.009Z" fill="#F26E22"/>
<path d="M262.363 149.016C262.363 149.016 262.279 146.791 262.297 151.838C262.363 170.661 262.69 192.161 263.489 204.742C264.774 224.967 268.068 288.733 268.068 288.733L250.641 288.587L233.751 148.251L262.363 149.016Z" fill="#262626"/>
<path d="M242.683 171.212C242.683 171.212 241.961 184.872 241.828 188.079C241.518 195.495 241.41 203.174 241.41 211.88L238.663 189.057C238.663 189.057 240.673 181.904 242.683 171.212Z" fill="#0A0A0A"/>
<path d="M223.158 284.009C223.158 284.009 221.728 291.409 214.788 291.822C207.848 292.236 209.352 297.755 209.352 297.755H235.874V284.526L223.158 284.009Z" fill="#F26E22"/>
<path d="M214.719 150.479C214.719 150.479 213.176 214.811 213.402 217.956L219.883 288.247L237.022 288.563L235.352 215.412C235.352 215.412 236.53 195.234 241.413 176.497C243.912 166.88 245.416 157.033 245.901 147.11V147.11L214.719 150.479Z" fill="#262626"/>
<path d="M262.553 149.014L262.61 149.017C262.61 149.017 262.568 147.92 262.553 149.014Z" fill="#333333"/>
<path d="M212.266 114.769C212.625 118.984 214.374 145.285 214.719 150.477H262.344C262.613 145.794 262.658 125.503 263.678 116.345C264.652 107.606 267.726 103.043 266.325 100.46C264.037 96.2372 257.783 93.7971 253.519 93.2207C250.915 92.8687 246.999 92.6164 246.999 92.6164C246.999 92.6164 246.667 99.3138 238.76 99.6866C227.996 100.193 228.715 92.6164 228.662 92.6164C226.92 92.6164 217.275 93.6023 215.153 95.4768C209.449 100.517 211.503 105.835 212.266 114.769Z" fill="#F26E22"/>
<path d="M222.988 92.039C223.041 92.0321 224.502 97.5207 235.903 96.6666C243.795 96.0763 245.721 90.7126 245.901 90.7126C245.05 90.532 243.668 90.3445 243.29 90.1434C242.047 89.4769 241.142 88.6652 240.686 86.9236C240.33 85.5614 240.148 80.3179 240.148 77.6871L228.003 80.4118C228.172 83.3793 229.357 90.2592 225.205 91.4768C224.514 91.6779 223.77 91.8632 222.988 92.039Z" fill="#E98862"/>
<path d="M228.424 86.246C233.211 86.6232 239.362 84.6049 240.53 78.2275L241.584 72.4727C242.752 66.0953 240.344 60.3126 234.331 59.2145C228.317 58.1163 222.875 62.4653 221.706 68.8427L221.24 71.3903C220.79 73.8377 219.881 85.5731 228.424 86.246Z" fill="#E98862"/>
<path d="M223.984 80.3906C224.844 76.0796 225.237 73.2031 225.192 70.1685C223.981 68.05 224.3 65.6153 224.575 64.5642C223.741 65.093 222.761 65.344 221.776 65.2811C221.776 65.2811 223.777 57.2597 230.58 55.1014C231.831 54.6151 235.026 54.001 239.268 54.5819C242.875 55.0758 251.769 57.7691 253.039 67.7651V67.7708C253.081 68.1022 253.935 77.3121 255.636 81.731C257.925 87.6714 261.138 89.517 261.056 96.371C260.952 105.187 244.718 106.36 234.928 105.701C225.138 105.042 219.67 101.827 219.599 95.4736C219.522 88.355 222.265 89.0162 223.984 80.3906Z" fill="#0A0A0A"/>
<path d="M263.361 116.335L262.191 150.473L262.508 150.484L263.678 116.346L263.361 116.335Z" fill="#0C0C0C"/>
<path d="M167.582 117.009L162.876 110.287C162.773 110.139 162.639 110.015 162.485 109.921C162.331 109.828 162.159 109.767 161.98 109.744C161.801 109.721 161.619 109.735 161.446 109.785C161.272 109.836 161.112 109.922 160.974 110.038C160.725 110.26 160.568 110.566 160.533 110.897C160.498 111.228 160.587 111.56 160.784 111.829L161.793 113.271L156.535 110.192C155.957 109.84 155.021 109.777 154.667 110.451C154.514 110.701 154.45 110.996 154.487 111.287C154.523 111.578 154.658 111.848 154.868 112.053C154.863 112.058 154.859 112.063 154.855 112.068C154.853 112.073 154.851 112.078 154.85 112.083L153.958 111.539C153.792 111.438 153.607 111.376 153.414 111.356C153.222 111.336 153.027 111.36 152.845 111.424C152.662 111.489 152.497 111.594 152.36 111.73C152.223 111.867 152.119 112.033 152.054 112.215C151.958 112.504 151.964 112.817 152.072 113.102C152.179 113.387 152.382 113.626 152.645 113.78L153.025 114.011C153.024 114.025 153.024 114.039 153.028 114.053C152.735 113.956 152.417 113.966 152.131 114.082C151.845 114.198 151.61 114.412 151.467 114.685C151.32 114.988 151.293 115.336 151.391 115.658C151.489 115.98 151.705 116.254 151.996 116.424L152.939 116.999C152.923 116.999 152.908 117.003 152.895 117.009C152.881 117.016 152.868 117.025 152.858 117.036C152.848 117.048 152.84 117.061 152.835 117.075C152.831 117.09 152.829 117.105 152.83 117.12C152.545 117.107 152.264 117.187 152.03 117.348C151.795 117.509 151.62 117.743 151.531 118.013C151.444 118.299 151.456 118.606 151.565 118.885C151.674 119.163 151.875 119.397 152.133 119.548L160.089 124.394C161.202 125.072 162.493 125.403 163.795 125.344C165.098 125.285 166.353 124.839 167.4 124.063V124.063C168.303 123.394 168.909 122.4 169.089 121.292C169.27 120.184 169.01 119.05 168.366 118.13L167.582 117.009Z" fill="#E98862"/>
<g opacity="0.2">
<path d="M160.058 115.128C160.041 115.154 160.015 115.174 159.985 115.181C159.954 115.188 159.922 115.184 159.895 115.168L154.899 112.234C154.873 112.217 154.854 112.191 154.847 112.161C154.84 112.13 154.845 112.099 154.86 112.072C154.876 112.045 154.902 112.025 154.932 112.017C154.962 112.009 154.994 112.012 155.021 112.027L160.017 114.962C160.031 114.97 160.043 114.98 160.052 114.993C160.061 115.005 160.068 115.019 160.072 115.035C160.076 115.05 160.077 115.066 160.075 115.081C160.073 115.097 160.068 115.112 160.06 115.125L160.058 115.128Z" fill="#0C0C0C"/>
</g>
<g opacity="0.2">
<path d="M158.823 117.362C158.806 117.388 158.78 117.407 158.75 117.415C158.719 117.422 158.687 117.418 158.66 117.402L153.086 114.127C153.072 114.119 153.06 114.109 153.051 114.096C153.041 114.084 153.035 114.069 153.031 114.054C153.027 114.039 153.026 114.023 153.028 114.007C153.03 113.992 153.035 113.977 153.043 113.963C153.06 113.937 153.087 113.918 153.117 113.91C153.148 113.902 153.18 113.906 153.207 113.921L158.782 117.195C158.809 117.211 158.829 117.238 158.837 117.268C158.845 117.299 158.84 117.332 158.824 117.359L158.823 117.362Z" fill="#0C0C0C"/>
</g>
<g opacity="0.2">
<path d="M157.5 119.791C157.483 119.817 157.457 119.836 157.427 119.844C157.396 119.851 157.364 119.847 157.337 119.831L152.89 117.219C152.864 117.202 152.845 117.176 152.838 117.146C152.83 117.116 152.835 117.084 152.851 117.057C152.867 117.03 152.892 117.011 152.922 117.002C152.952 116.994 152.984 116.998 153.011 117.012L157.459 119.624C157.473 119.632 157.484 119.643 157.494 119.655C157.503 119.668 157.51 119.682 157.514 119.697C157.518 119.713 157.519 119.729 157.517 119.744C157.515 119.76 157.509 119.775 157.501 119.788L157.5 119.791Z" fill="#0C0C0C"/>
</g>
<path d="M213.382 97.5064L193.636 127.054L168.705 112.622L159.701 127.345L191.637 147.823C193.685 149.133 196.167 149.589 198.549 149.092C200.93 148.596 203.021 147.186 204.373 145.167L204.491 144.99L229.189 108.036L213.382 97.5064Z" fill="#F26E22"/>
<path d="M213.443 131.965C213.414 131.965 213.386 131.957 213.361 131.942C213.337 131.927 213.317 131.906 213.303 131.881C213.29 131.856 213.283 131.827 213.285 131.799C213.286 131.77 213.295 131.743 213.311 131.719L218.518 123.979C218.542 123.945 218.579 123.923 218.619 123.915C218.66 123.908 218.701 123.917 218.736 123.94C218.77 123.962 218.794 123.998 218.802 124.038C218.811 124.078 218.803 124.12 218.781 124.155L213.574 131.895C213.56 131.916 213.54 131.934 213.517 131.946C213.494 131.958 213.469 131.965 213.443 131.965Z" fill="#0C0C0C"/>
</g>
<defs>
<clipPath id="clip0_5_742">
<rect width="311" height="298" fill="white"/>
</clipPath>
</defs>
</svg>
